<svg width="140" height="140" viewBox="0 0 140 140" fill="none" xmlns="http://www.w3.org/2000/svg">
    <g filter="url(#filter0_d_3_59)">
        <path d="M15.3036 49.2046L70.3036 115L125.304 49.2046L102.173 25L70.3036 25L38.4337 25L15.3036 49.2046Z" fill="#2C113E"/>
        <path d="M67.2346 117.565L70.3036 121.237L73.3725 117.565L128.373 51.7701L130.666 49.0264L128.195 46.4411L105.065 22.2365L103.884 21L102.173 21L70.3036 21L38.4337 21L36.7234 21L35.5418 22.2365L12.4117 46.4411L9.94112 49.0265L12.2346 51.7701L67.2346 117.565Z"
              stroke="#6D3792" stroke-width="8"/>
    </g>
    <mask id="mask0_3_59" style="mask-type:alpha" maskUnits="userSpaceOnUse" x="15" y="25" width="111" height="90">
        <path d="M15 49.2047L70.4464 115L125.893 49.2047L102.575 25.0001L70.4464 25.0001L38.3178 25.0001L15 49.2047Z" fill="#2E044A"/>
    </mask>
    <g mask="url(#mask0_3_59)">
        <path d="M62 20.5L95.3571 89.2857H44.7321L58.6292 64.7322" stroke="#9965BB" stroke-width="20"/>
    </g>
    <g filter="url(#filter1_d_3_59)">
        <path d="M70.2268 115.064L70.3036 115.156L70.3803 115.064L125.38 49.2688L125.438 49.2002L125.376 49.1356L102.246 24.9309L102.216 24.9L102.173 24.9L70.3036 24.9L38.4337 24.9L38.3909 24.9L38.3614 24.9309L15.2313 49.1356L15.1695 49.2002L15.2268 49.2688L70.2268 115.064Z"
              stroke="black" stroke-opacity="0.5" stroke-width="0.2" shape-rendering="crispEdges"/>
    </g>
    <defs>
        <filter id="filter0_d_3_59" x="2.57869" y="17" width="135.45" height="114.474" filterUnits="userSpaceOnUse" color-interpolation-filters="sRGB">
            <feFlood flood-opacity="0" result="BackgroundImageFix"/>
            <feColorMatrix in="SourceAlpha" type="matrix" values="0 0 0 0 0 0 0 0 0 0 0 0 0 0 0 0 0 0 127 0" result="hardAlpha"/>
            <feOffset dy="2"/>
            <feGaussianBlur stdDeviation="1"/>
            <feComposite in2="hardAlpha" operator="out"/>
            <feColorMatrix type="matrix" values="0 0 0 0 0 0 0 0 0 0 0 0 0 0 0 0 0 0 0.25 0"/>
            <feBlend mode="normal" in2="BackgroundImageFix" result="effect1_dropShadow_3_59"/>
            <feBlend mode="normal" in="SourceGraphic" in2="effect1_dropShadow_3_59" result="shape"/>
        </filter>
        <filter id="filter1_d_3_59" x="13.0354" y="24.8" width="114.536" height="94.5118" filterUnits="userSpaceOnUse" color-interpolation-filters="sRGB">
            <feFlood flood-opacity="0" result="BackgroundImageFix"/>
            <feColorMatrix in="SourceAlpha" type="matrix" values="0 0 0 0 0 0 0 0 0 0 0 0 0 0 0 0 0 0 127 0" result="hardAlpha"/>
            <feOffset dy="2"/>
            <feGaussianBlur stdDeviation="1"/>
            <feComposite in2="hardAlpha" operator="out"/>
            <feColorMatrix type="matrix" values="0 0 0 0 0 0 0 0 0 0 0 0 0 0 0 0 0 0 0.25 0"/>
            <feBlend mode="normal" in2="BackgroundImageFix" result="effect1_dropShadow_3_59"/>
            <feBlend mode="normal" in="SourceGraphic" in2="effect1_dropShadow_3_59" result="shape"/>
        </filter>
    </defs>
</svg>
